<?xml version="1.0" encoding="utf-8"?>
<!DOCTYPE svg PUBLIC "-//W3C//DTD SVG 1.1//EN" "http://www.w3.org/Graphics/SVG/1.1/DTD/svg11.dtd">
<svg version="1.1" id="Layer_1" xmlns="http://www.w3.org/2000/svg" xmlns:xlink="http://www.w3.org/1999/xlink" x="0px" y="0px"
	 width="500px" height="500px" viewBox="515.5 565.5 500 500" enable-background="new 515.5 565.5 500 500" xml:space="preserve">
<g>

		<linearGradient id="SVGID_1_" gradientUnits="userSpaceOnUse" x1="1819.5898" y1="797.2402" x2="1819.5898" y2="606.3867" gradientTransform="matrix(1 0 0 1 -1054 218)">
		<stop  offset="0" style="stop-color:#FFFF00"/>
		<stop  offset="0.3" style="stop-color:#FF0000"/>
		<stop  offset="1" style="stop-color:#FF0000"/>
	</linearGradient>
	<rect x="647.711" y="824.387" fill="url(#SVGID_1_)" width="235.758" height="190.854"/>
	<path id="path3004" fill="#303030" stroke="#000000" stroke-miterlimit="10" d="M840.131,590.5
		c-0.045-0.023-180.651,151.891-197.473,164.282c-14.819,11.071-20.207,19.787-20.207,50.191c0,30.396-0.406,164.581,0,196.233
		c0,0-0.182,28.066,28.066,28.066h28.066c0.279,18.363,0-19.181,0,11.227h28.066v-39.293h-36.485c-19.087,0-19.087,0-19.647-28.066
		V815.406c0-30.396,1.955-32.342,12.094-42.479c34.327-30.207,155.784-131.565,195.974-163.895
		C843.216,593.532,840.443,590.655,840.131,590.5L840.131,590.5z M877.855,631.29c-21.471,32.106-43.962,76.318-66.576,112.882
		c74.996,46.534,69.383,40.839,69.383,71.234v157.734c-0.56,28.066-0.56,28.066-28.066,28.066h-28.066v39.293h28.066v-11.227h28.066
		c28.066-1.122,28.066-28.066,28.066-28.066V804.971c-5.051-33.908-19.646-41.207-61.746-65.904
		c16.737-32.331,35.104-65.514,50.52-92.621 M728.544,1001.207v39.293h28.066v-39.293H728.544z M775.694,1001.207v39.293h28.066
		v-39.293H775.694z"/>
</g>
<rect x="235" y="1514" fill="none" width="900" height="900"/>
</svg>
