<?xml version="1.0" encoding="utf-8"?>
<!DOCTYPE svg PUBLIC "-//W3C//DTD SVG 1.1//EN" "http://www.w3.org/Graphics/SVG/1.1/DTD/svg11.dtd">
<svg version="1.1" id="Layer_1" xmlns="http://www.w3.org/2000/svg" xmlns:xlink="http://www.w3.org/1999/xlink" x="0px" y="0px"
	 width="44px" height="44px" viewBox="515.5 565.5 44 44" enable-background="new 515.5 565.5 44 44" xml:space="preserve">
<circle fill="none" stroke="#FFFFFF" stroke-linejoin="round" stroke-miterlimit="10" cx="537.5" cy="587.5" r="2.083"/>
<path fill="none" stroke="#FFFFFF" stroke-linejoin="round" stroke-miterlimit="10" d="M537.5,577.5c-2.192,0-3.846,4.299-3.846,10
	s1.654,10,3.846,10c2.192,0,3.846-4.299,3.846-10S539.692,577.5,537.5,577.5z"/>
<path fill="none" stroke="#FFFFFF" stroke-linejoin="round" stroke-miterlimit="10" d="M528.84,582.5
	c-1.096,1.898,1.799,5.48,6.737,8.33c4.937,2.851,9.486,3.568,10.582,1.67c1.097-1.898-1.799-5.48-6.736-8.332
	C534.486,581.318,529.936,580.602,528.84,582.5z"/>
<path fill="none" stroke="#FFFFFF" stroke-linejoin="round" stroke-miterlimit="10" d="M528.84,592.499
	c1.097,1.899,5.646,1.182,10.584-1.669c4.937-2.85,7.832-6.432,6.737-8.33c-1.097-1.898-5.646-1.182-10.584,1.668
	C530.64,587.02,527.744,590.602,528.84,592.499z"/>
</svg>
