<?xml version="1.0" encoding="utf-8"?>
<!DOCTYPE svg PUBLIC "-//W3C//DTD SVG 1.1//EN" "http://www.w3.org/Graphics/SVG/1.1/DTD/svg11.dtd">
<svg version="1.1" id="Layer_1" xmlns="http://www.w3.org/2000/svg" xmlns:xlink="http://www.w3.org/1999/xlink" x="0px" y="0px"
	 width="120px" height="120px" viewBox="225.5 275.5 120 120" enable-background="new 225.5 275.5 120 120" xml:space="preserve">
<rect x="225.5" y="275.5" width="120" height="120"/>
<path fill="#FFFFFF" d="M267.337,275.5h36.326c12.047,0,18.069,0,24.554,2.05c7.08,2.577,12.656,8.153,15.233,15.233
	c2.05,6.484,2.05,12.508,2.05,24.554v36.326c0,12.047,0,18.069-2.05,24.554c-2.577,7.08-8.153,12.656-15.233,15.232
	c-6.484,2.051-12.507,2.051-24.554,2.051h-36.326c-12.047,0-18.07,0-24.554-2.051c-7.08-2.576-12.656-8.152-15.233-15.232
	c-2.05-6.484-2.05-12.507-2.05-24.554v-36.326c0-12.046,0-18.069,2.05-24.554c2.577-7.08,8.153-12.656,15.233-15.233
	C249.267,275.5,255.29,275.5,267.337,275.5L267.337,275.5"/>
<g>

		<linearGradient id="SVGID_1_" gradientUnits="userSpaceOnUse" x1="1620.5186" y1="-27.4478" x2="1620.5186" y2="10.7231" gradientTransform="matrix(1 0 0 -1 -1335 348)">
		<stop  offset="0" style="stop-color:#FFFF00"/>
		<stop  offset="0.3" style="stop-color:#FF0000"/>
		<stop  offset="1" style="stop-color:#FF0000"/>
	</linearGradient>
	<rect x="261.941" y="337.277" fill="url(#SVGID_1_)" width="47.152" height="38.171"/>
	<path id="path3004" fill="#303030" stroke="#000000" stroke-miterlimit="10" d="M300.426,290.5
		c-0.009-0.004-36.13,30.379-39.495,32.857c-2.963,2.213-4.041,3.956-4.041,10.037c0,6.08-0.081,32.916,0,39.246
		c0,0-0.035,5.614,5.614,5.614h5.613c0.056,3.673,0-3.837,0,2.245h5.612v-7.859h-7.297c-3.817,0-3.817,0-3.929-5.612V335.48
		c0-6.078,0.391-6.467,2.419-8.495c6.864-6.042,31.155-26.312,39.194-32.78C301.043,291.106,300.489,290.531,300.426,290.5
		L300.426,290.5z M307.972,298.658c-4.294,6.421-8.792,15.263-13.315,22.577c15,9.306,13.876,8.167,13.876,14.245v31.548
		c-0.112,5.612-0.112,5.612-5.612,5.612h-5.614v7.859h5.614v-2.245h5.612c5.613-0.225,5.613-5.614,5.613-5.614v-39.246
		c-1.009-6.782-3.929-8.241-12.349-13.181c3.347-6.467,7.021-13.103,10.104-18.523 M278.108,372.641v7.859h5.614v-7.859H278.108
		L278.108,372.641z M287.539,372.641v7.859h5.612v-7.859H287.539L287.539,372.641z"/>
</g>
</svg>
